<?xml version="1.0" encoding="utf-8"?>
<!-- Generator: Adobe Illustrator 19.1.0, SVG Export Plug-In . SVG Version: 6.00 Build 0)  -->
<svg version="1.1" id="Layer_1" xmlns="http://www.w3.org/2000/svg" xmlns:xlink="http://www.w3.org/1999/xlink" x="0px" y="0px"
	 viewBox="0 0 2272 1872" enable-background="new 0 0 2272 1872" xml:space="preserve">
<rect fill="#2475FF" width="2272" height="1872"/>
<g>
	<path fill="#FFFFFF" d="M467.1,447.2c-7.5-28.5-27.2-52.2-53.1-65c-5-45.7-43.7-81.3-90.7-81.3c-50.4,0-91.3,40.9-91.3,91.3
		c-50.4,0-91.3,40.9-91.3,91.3c0,50.4,40.9,91.3,91.3,91.3c26.1,0,49.7-11,66.3-28.6c18.3,17.7,43.2,28.6,70.6,28.6
		c18.7,0,36.2-5.1,51.2-13.9c10.9,8.7,24.7,13.9,39.8,13.9c35.3,0,64-28.6,64-64C523.9,477.8,499.1,450.8,467.1,447.2z"/>
	<path fill="#D1D3D4" d="M459.9,545.5c-15,0-28.8-5.2-39.8-13.9c-15,8.8-32.5,13.9-51.2,13.9c-27.4,0-52.3-10.9-70.6-28.6
		c-16.6,17.6-40.2,28.6-66.3,28.6c-45.4,0-83.1-33.2-90.1-76.7c-0.8,4.8-1.2,9.6-1.2,14.6c0,50.4,40.9,91.3,91.3,91.3
		c26.1,0,49.7-11,66.3-28.6c18.3,17.7,43.2,28.6,70.6,28.6c18.7,0,36.2-5.1,51.2-13.9c10.9,8.7,24.7,13.9,39.8,13.9
		c35.3,0,64-28.6,64-64c0-5-0.6-9.9-1.7-14.6C515.6,524.4,490.2,545.5,459.9,545.5z"/>
</g>
<g>
	<path fill="#FFFFFF" d="M1543.1,697.7c0-0.6,0-1.1,0-1.7c0-33.4-27.1-60.5-60.5-60.5c-4,0-7.9,0.4-11.7,1.1
		c-10.2-31.9-40.1-55.1-75.4-55.1c-40.9,0-74.6,31-78.7,70.9c-0.1,0-0.3,0-0.4,0c-23.3,0-42.9,16.2-48.1,37.9
		c-14.2,3.7-24.8,16.5-24.8,31.9c0,18.2,14.8,33,33,33c8,0,15.3-2.9,21.1-7.6c1.2,0.5,2.4,0.9,3.6,1.3c3.9,13.8,16.6,23.9,31.7,23.9
		c4.3,0,8.3-0.8,12.1-2.3c9.2,18.6,28.4,31.5,50.6,31.5c22,0,41.1-12.6,50.3-31c5.7,4.7,13,7.6,21,7.6c9.6,0,18.2-4.1,24.3-10.7
		c2.8,0.8,5.7,1.2,8.7,1.2c8.7,0,16.6-3.4,22.5-8.9c3.3,1.1,6.8,1.7,10.5,1.7c18.2,0,33-14.8,33-33
		C1565.8,714.4,1556.2,702.1,1543.1,697.7z"/>
	<path fill="#D1D3D4" d="M1532.8,726.4c-3.7,0-7.2-0.6-10.5-1.7c-5.9,5.5-13.8,8.9-22.5,8.9c-3,0-5.9-0.4-8.7-1.2
		c-6,6.6-14.6,10.7-24.3,10.7c-8,0-15.3-2.8-21-7.6c-9.3,18.4-28.3,31-50.3,31c-22.2,0-41.4-12.8-50.6-31.5
		c-3.7,1.5-7.8,2.3-12.1,2.3c-15.1,0-27.8-10.1-31.7-23.9c-1.2-0.4-2.5-0.8-3.6-1.3c-5.7,4.7-13,7.6-21.1,7.6
		c-11.6,0-21.8-6-27.7-15.1c-3.3,5.1-5.3,11.3-5.3,17.8c0,18.2,14.8,33,33,33c8,0,15.3-2.9,21.1-7.6c1.2,0.5,2.4,0.9,3.6,1.3
		c3.9,13.8,16.6,23.9,31.7,23.9c4.3,0,8.3-0.8,12.1-2.3c9.2,18.6,28.4,31.5,50.6,31.5c22,0,41.1-12.6,50.3-31c5.7,4.7,13,7.6,21,7.6
		c9.6,0,18.2-4.1,24.3-10.7c2.8,0.8,5.7,1.2,8.7,1.2c8.7,0,16.6-3.4,22.5-8.9c3.3,1.1,6.8,1.7,10.5,1.7c18.2,0,33-14.8,33-33
		c0-6.6-1.9-12.7-5.3-17.9C1554.6,720.3,1544.4,726.4,1532.8,726.4z"/>
</g>
<g>
	<path fill="#FFFFFF" d="M1179.2,297.2c3.1-7.3,4.8-15.2,4.8-23.6c0-33.4-27.1-60.5-60.5-60.5c-16.8,0-32,6.8-42.9,17.9
		c-17.5-9.1-37.3-14.3-58.4-14.3c-51.8,0-96.3,31.2-115.7,75.8c-3.4-0.4-6.9-0.6-10.5-0.6c-50.4,0-91.3,40.9-91.3,91.3
		s40.9,91.3,91.3,91.3c23.5,0,44.9-8.9,61.1-23.4c2.3,1.4,4.7,2.7,7.1,3.9c11.3,37.6,46.1,65.1,87.4,65.1c34.4,0,64.4-19,79.9-47.2
		c5.5,1,11.1,1.6,16.9,1.6c50.4,0,91.3-40.9,91.3-91.3C1239.7,343.5,1214.4,309.8,1179.2,297.2z"/>
	<g>
		<path fill="#D1D3D4" d="M1148.4,438.7c-5.8,0-11.4-0.6-16.9-1.6c-15.6,28.1-45.5,47.2-79.9,47.2c-41.3,0-76.2-27.4-87.4-65.1
			c-2.4-1.2-4.8-2.6-7.1-3.9c-16.2,14.6-37.6,23.4-61.1,23.4c-44.3,0-81.2-31.6-89.5-73.4c-1.1,5.8-1.8,11.7-1.8,17.8
			c0,50.4,40.9,91.3,91.3,91.3c23.5,0,44.9-8.9,61.1-23.4c2.3,1.4,4.7,2.7,7.1,3.9c11.3,37.6,46.1,65.1,87.4,65.1
			c34.4,0,64.4-19,79.9-47.2c5.5,1,11.1,1.6,16.9,1.6c50.4,0,91.3-40.9,91.3-91.3c0-6.1-0.6-12.1-1.8-17.9
			C1229.6,407.1,1192.7,438.7,1148.4,438.7z"/>
		<path fill="#D1D3D4" d="M1179.2,261.5c1.3,0.5,2.6,1,3.8,1.5c-0.4-2.5-1-4.9-1.7-7.2C1180.7,257.7,1180,259.6,1179.2,261.5z"/>
	</g>
</g>
<g>
	<path fill="#FFFFFF" d="M467.1,960c-4.7,0-9.2,1.1-13.2,3c-8-14.7-23.6-24.7-41.6-24.7c-5.7,0-11.2,1-16.2,2.9
		c-12.7-15.1-31.7-24.6-52.9-24.6c-2.2,0-4.4,0.1-6.5,0.3c-11-23.5-34.9-39.8-62.6-39.8c-38.2,0-69.1,30.9-69.1,69.1
		c0,2.1,0.1,4.3,0.3,6.3c-22.1,4-38.9,23.3-38.9,46.6c0,26.1,21.2,47.3,47.3,47.3c5.3,0,10.4-0.9,15.2-2.5c9.5,26.8,35.1,46,65.1,46
		c26.3,0,49.1-14.7,60.8-36.2c16.5-2.8,30.9-11.4,41.3-23.6c5.1,1.8,10.5,2.9,16.2,2.9c14.5,0,27.5-6.5,36.2-16.8
		c5.2,3.9,11.6,6.2,18.6,6.2c17.2,0,31.1-13.9,31.1-31.1C498.2,973.9,484.3,960,467.1,960z"/>
	<path fill="#D1D3D4" d="M467.1,986.6c-7,0-13.4-2.3-18.6-6.2c-8.7,10.3-21.7,16.8-36.2,16.8c-5.7,0-11.2-1-16.2-2.9
		c-10.3,12.2-24.8,20.8-41.3,23.6c-11.7,21.6-34.5,36.2-60.8,36.2c-30.1,0-55.7-19.2-65.1-46c-4.8,1.6-9.9,2.5-15.2,2.5
		c-19.8,0-36.8-12.2-43.8-29.5c-2.2,5.5-3.5,11.5-3.5,17.8c0,26.1,21.2,47.3,47.3,47.3c5.3,0,10.4-0.9,15.2-2.5
		c9.5,26.8,35.1,46,65.1,46c26.3,0,49.1-14.7,60.8-36.2c16.5-2.8,30.9-11.4,41.3-23.6c5.1,1.8,10.5,2.9,16.2,2.9
		c14.5,0,27.5-6.5,36.2-16.8c5.2,3.9,11.6,6.2,18.6,6.2c17.2,0,31.1-13.9,31.1-31.1c0-6.6-2.1-12.8-5.6-17.8
		C487,981.3,477.6,986.6,467.1,986.6z"/>
</g>
<g>
	<path fill="#FFFFFF" d="M1448.7,1129c0-53.4-43.3-96.7-96.7-96.7c-9.9,0-19.4,1.5-28.3,4.2c-21.2-25.6-53.2-42-89.1-42
		c-46.2,0-86.1,27.1-104.5,66.3c-3.6-0.5-7.3-0.7-11-0.7c-34.2,0-63.5,20.7-76.2,50.3c-2.2-0.2-4.4-0.4-6.6-0.4
		c-31.9,0-57.8,25.9-57.8,57.8c0,31.9,25.9,57.8,57.8,57.8c14.2,0,27.2-5.1,37.3-13.6c13.1,8.6,28.7,13.6,45.5,13.6
		c0.6,0,1.1,0,1.7,0c14.8,22.3,40.2,37,69,37c16,0,30.9-4.6,43.6-12.4c13.9,26.3,41.5,44.3,73.3,44.3c43.5,0,79.1-33.6,82.5-76.2
		C1424,1203.8,1448.7,1169.3,1448.7,1129z"/>
	<path fill="#D1D3D4" d="M1389,1182.7c-3.3,42.6-39,76.2-82.5,76.2c-31.8,0-59.4-18-73.3-44.3c-12.7,7.9-27.6,12.4-43.6,12.4
		c-28.8,0-54.1-14.7-69-37c-0.6,0-1.1,0-1.7,0c-16.8,0-32.4-5-45.5-13.6c-10.1,8.5-23.1,13.6-37.3,13.6c-25.7,0-47.4-16.8-54.9-39.9
		c-1.8,5.6-2.8,11.6-2.8,17.8c0,31.9,25.9,57.8,57.8,57.8c14.2,0,27.2-5.1,37.3-13.6c13.1,8.6,28.7,13.6,45.5,13.6
		c0.6,0,1.1,0,1.7,0c14.8,22.3,40.2,37,69,37c16,0,30.9-4.6,43.6-12.4c13.9,26.3,41.4,44.3,73.3,44.3c43.5,0,79.1-33.6,82.5-76.2
		c35-14.5,59.6-49,59.6-89.3c0-6.1-0.6-12-1.7-17.8C1440.9,1143.6,1418.7,1170.3,1389,1182.7z"/>
</g>
<g>
	<path fill="#FFFFFF" d="M2020.9,970.9c-3.5-36.7-32.4-65.9-68.8-70c0-0.2,0-0.3,0-0.5c0-43.1-34.9-78-78-78c-43.1,0-78,34.9-78,78
		c0,10,1.9,19.5,5.3,28.3c-5.1-1.7-10.6-2.6-16.4-2.6c-28.9,0-52.4,23.4-52.4,52.4c0,3.2,0.3,6.3,0.8,9.3c-2.3-0.3-4.6-0.4-7-0.4
		c-32.3,0-58.6,26.2-58.6,58.6c0,32.3,26.2,58.6,58.6,58.6c3.2,0,6.3-0.3,9.3-0.7c13.2,24.4,39,41,68.7,41
		c23.9,0,45.2-10.7,59.5-27.6c10.5,14.2,27.3,23.4,46.3,23.6c21,0.2,39.5-10.6,50-27.1c11.4,6.5,24.6,10.3,38.7,10.3
		c43.1,0,78-34.9,78-78C2077,1010.3,2053.4,980.4,2020.9,970.9z"/>
	<g>
		<path fill="#D1D3D4" d="M1801.4,892.9c-1.3-3.4-2.4-6.8-3.2-10.4c-0.7,3-1.2,6-1.6,9.1C1798.2,892,1799.8,892.4,1801.4,892.9z"/>
		<path fill="#D1D3D4" d="M1999,1088.1c-14.1,0-27.3-3.7-38.7-10.3c-10.5,16.5-29,27.3-50,27.1c-19-0.2-35.8-9.5-46.3-23.6
			c-14.3,16.9-35.7,27.6-59.5,27.6c-29.7,0-55.5-16.6-68.7-41c-3,0.5-6.2,0.7-9.3,0.7c-26.1,0-48.2-17.1-55.8-40.7
			c-1.8,5.6-2.8,11.6-2.8,17.8c0,32.3,26.2,58.6,58.6,58.6c3.2,0,6.3-0.3,9.3-0.7c13.2,24.4,39,41,68.7,41
			c23.9,0,45.2-10.7,59.5-27.6c10.5,14.2,27.3,23.4,46.3,23.6c21,0.2,39.5-10.6,50-27.1c11.4,6.5,24.6,10.3,38.7,10.3
			c43.1,0,78-34.9,78-78c0-6.1-0.7-12.1-2.1-17.9C2066.9,1062.4,2036,1088.1,1999,1088.1z"/>
	</g>
</g>
<g>
	<path fill="#FFFFFF" d="M2019.5,355.5c-12.1,0-23.6,2.8-33.8,7.7c-18.5-65-78.3-112.5-149.2-112.5c-54.4,0-102.2,28-129.9,70.3
		c-13.8-12.5-32.1-20.1-52.1-20.1c-42.9,0-77.6,34.8-77.6,77.6s34.8,77.6,77.6,77.6c4,0,7.9-0.3,11.7-0.9
		c-7.7,12.1-12.2,26.4-12.2,41.8c0,42.9,34.8,77.6,77.6,77.6c10.8,0,21-2.2,30.3-6.1c9.3,32.4,39.2,56.2,74.6,56.2
		c31.1,0,58-18.3,70.3-44.8c10.5,5.3,22.4,8.4,35,8.4c42.9,0,77.6-34.8,77.6-77.6c42.9,0,77.6-34.8,77.6-77.6
		S2062.4,355.5,2019.5,355.5z"/>
	<g>
		<path fill="#D1D3D4" d="M1666.2,419.6c-3.8,0.6-7.7,0.9-11.7,0.9c-36.7,0-67.5-25.5-75.5-59.8c-1.3,5.7-2.1,11.7-2.1,17.8
			c0,42.7,34.5,77.4,77.2,77.6C1655.1,442.8,1659.4,430.3,1666.2,419.6z"/>
		<path fill="#D1D3D4" d="M2019.5,475.1c0,42.9-34.8,77.6-77.6,77.6c-12.6,0-24.5-3-35-8.4c-12.4,26.4-39.2,44.8-70.3,44.8
			c-35.4,0-65.3-23.8-74.6-56.2c-9.3,4-19.6,6.1-30.3,6.1c-36.7,0-67.5-25.5-75.5-59.8c-1.4,5.7-2.1,11.7-2.1,17.9
			c0,42.9,34.8,77.6,77.6,77.6c10.8,0,21-2.2,30.3-6.1c9.3,32.4,39.2,56.2,74.6,56.2c31.1,0,58-18.3,70.3-44.8
			c10.5,5.3,22.4,8.4,35,8.4c42.9,0,77.6-34.8,77.6-77.6c42.9,0,77.6-34.8,77.6-77.6c0-6.1-0.7-12.1-2.1-17.8
			C2087,449.6,2056.3,475.1,2019.5,475.1z"/>
	</g>
</g>
<g>
	<path fill="#FFFFFF" d="M905.3,821.3c-7.2,0-14.1,1.8-20.1,4.9c-3.8-6-8.4-11.4-13.6-16c0,0,0,0,0,0c0-30.7-22.5-56.1-51.9-60.6
		c-10.6-42.8-49.3-74.5-95.3-74.5c-54.3,0-98.2,44-98.2,98.2c0,0.6,0,1.2,0,1.8c-7.3-2.4-15.1-3.8-23.2-3.8
		c-40.4,0-73.1,32.7-73.1,73.1c0,40.4,32.7,73.1,73.1,73.1c8.4,0,16.5-1.4,24-4.1c15.7,33.3,49.6,56.4,88.9,56.4
		c30,0,56.9-13.5,74.9-34.7c9.4,4.3,19.9,6.6,30.9,6.6c27.5,0,51.5-14.7,64.6-36.7c5.8,2.8,12.2,4.3,19,4.3c24.3,0,44-19.7,44-44
		C949.3,841,929.6,821.3,905.3,821.3z"/>
	<path fill="#D1D3D4" d="M905.3,873.5c-6.8,0-13.3-1.6-19-4.3c-13.1,22-37.2,36.7-64.6,36.7c-11,0-21.5-2.4-30.9-6.6
		c-18,21.2-44.9,34.7-74.9,34.7c-39.3,0-73.2-23.1-88.9-56.4c-7.5,2.6-15.6,4.1-24,4.1c-34.2,0-62.9-23.5-70.9-55.2
		c-1.4,5.7-2.2,11.7-2.2,17.8c0,40.4,32.7,73.1,73.1,73.1c8.4,0,16.5-1.4,24-4.1c15.7,33.3,49.6,56.4,88.9,56.4
		c30,0,56.9-13.5,74.9-34.7c9.4,4.3,19.9,6.6,30.9,6.6c27.5,0,51.5-14.7,64.6-36.7c5.8,2.8,12.2,4.3,19,4.3c24.3,0,44-19.7,44-44
		c0-6.4-1.4-12.4-3.8-17.8C938.7,862.8,923.3,873.5,905.3,873.5z"/>
</g>
<g>
	<path fill="#FFFFFF" d="M2015.9,1408.5c-15.6-35.3-50.9-60-92-60c-36.5,0-68.5,19.5-86.1,48.6c-17.6-29.2-49.6-48.6-86.1-48.6
		c-30.7,0-58.2,13.8-76.7,35.5c-9.4-6.2-19.8-10.8-31.1-13.6c-13.6-39.4-51-67.7-95-67.7c-55.5,0-100.5,45-100.5,100.5
		c0,10.5,1.6,20.5,4.6,30c-5.1-1.4-10.5-2.2-16-2.2c-32.7,0-59.1,26.5-59.1,59.1c0,32.7,26.5,59.1,59.1,59.1
		c7.2,0,14.2-1.3,20.6-3.7c15.9,34.6,50.8,58.7,91.4,58.7c17.5,0,33.9-4.5,48.2-12.3c18.3,24.4,47.5,40.1,80.3,40.1
		c43.8,0,81.1-28.1,94.8-67.2c18.4,24,47.3,39.4,79.8,39.4c39.7,0,74.1-23,90.4-56.5c0.9-0.2,1.7-0.3,2.6-0.5
		c14.4,13.2,33.6,21.3,54.7,21.3c44.6,0,80.8-36.2,80.8-80.8C2080.7,1448.5,2052.8,1415.9,2015.9,1408.5z"/>
	<g>
		<path fill="#D1D3D4" d="M1453,1397.5c-1.2-3.9-2.2-8-3-12.1c-0.7,3.6-1.1,7.3-1.4,11.1C1450.1,1396.8,1451.6,1397.1,1453,1397.5z"
			/>
		<path fill="#D1D3D4" d="M1999.8,1532.8c-21.1,0-40.3-8.1-54.7-21.3c-0.9,0.2-1.7,0.4-2.6,0.5c-16.3,33.4-50.7,56.5-90.4,56.5
			c-32.5,0-61.4-15.5-79.8-39.4c-13.7,39.2-51,67.2-94.8,67.2c-32.8,0-62-15.8-80.3-40.1c-14.3,7.9-30.8,12.3-48.2,12.3
			c-40.6,0-75.5-24-91.4-58.7c-6.4,2.4-13.4,3.7-20.6,3.7c-26.4,0-48.8-17.4-56.4-41.3c-1.8,5.6-2.7,11.6-2.7,17.8
			c0,32.7,26.5,59.1,59.1,59.1c7.2,0,14.2-1.3,20.6-3.7c15.9,34.6,50.8,58.7,91.4,58.7c17.5,0,33.9-4.5,48.2-12.3
			c18.3,24.4,47.5,40.1,80.3,40.1c43.8,0,81.1-28.1,94.8-67.2c18.4,24,47.3,39.4,79.8,39.4c39.7,0,74.1-23,90.4-56.5
			c0.9-0.2,1.7-0.3,2.6-0.5c14.4,13.2,33.6,21.3,54.7,21.3c44.6,0,80.8-36.2,80.8-80.8c0-6.2-0.7-12.1-2-17.9
			C2070.6,1505.9,2038.4,1532.8,1999.8,1532.8z"/>
	</g>
</g>
<g>
	<path fill="#FFFFFF" d="M651.8,1360.4c-14.8,0-28.7,3.7-40.9,10.1c-12.8-32.6-44.5-55.7-81.7-55.7c-12.3,0-24.1,2.6-34.7,7.2
		c-11.5-50.8-56.8-88.7-111.1-88.7c-62.9,0-113.9,51-113.9,113.9c0,10.8,1.5,21.2,4.3,31.1c-43,3-77,38.8-77,82.6
		c0,45.7,37.1,82.8,82.8,82.8c3,0,5.9-0.2,8.8-0.5c14.2,29.2,44.2,49.4,78.9,49.4c20.7,0,39.7-7.2,54.7-19.1
		c24.1,29.6,60.9,48.5,102,48.5c56.7,0,105.1-35.9,123.6-86.2c1.4,0.1,2.8,0.1,4.2,0.1c48.5,0,87.7-39.3,87.7-87.7
		S700.3,1360.4,651.8,1360.4z"/>
	<g>
		<path fill="#D1D3D4" d="M651.8,1500.2c-1.4,0-2.8,0-4.2-0.1c-18.5,50.3-66.8,86.2-123.6,86.2c-41.2,0-77.9-18.9-102-48.5
			c-15,12-34,19.1-54.7,19.1c-34.7,0-64.7-20.1-78.9-49.4c-2.9,0.3-5.8,0.5-8.8,0.5c-39.6,0-72.7-27.8-80.8-64.9
			c-1.3,5.7-2,11.7-2,17.8c0,45.7,37.1,82.8,82.8,82.8c3,0,5.9-0.2,8.8-0.5c14.2,29.2,44.2,49.4,78.9,49.4
			c20.7,0,39.7-7.2,54.7-19.1c24.1,29.6,60.9,48.5,102,48.5c56.7,0,105.1-35.9,123.6-86.2c1.4,0.1,2.8,0.1,4.2,0.1
			c48.5,0,87.7-39.3,87.7-87.7c0-6.1-0.6-12.1-1.8-17.8C729.5,1470.2,694.2,1500.2,651.8,1500.2z"/>
		<path fill="#D1D3D4" d="M273.8,1342.6c-1.2-4.3-2.2-8.8-2.9-13.3c-0.7,4.5-1.1,9.1-1.3,13.7C271,1342.9,272.4,1342.7,273.8,1342.6
			z"/>
	</g>
</g>
<g>
	<path fill="#FFFFFF" d="M1246.4,1527.8c0-21.9-17.8-39.7-39.7-39.7c0-33.4-27.1-60.5-60.5-60.5c-27.2,0-50.2,18-57.8,42.7
		c-5.6-1.9-11.5-3-17.7-3c-16.6,0-31.4,7.4-41.3,19.2c-5.2-2.3-11-3.7-17-3.7c-15.1,0-28.4,8.1-35.6,20.2c-3.2-1.5-6.7-2.4-10.5-2.4
		c-13.4,0-24.3,10.9-24.3,24.3c0,13.4,10.9,24.3,24.3,24.3c4,0,7.8-1,11.1-2.7c2.1,3.3,4.6,6.3,7.5,8.8c0,0,0,0,0,0
		c0,16.9,12.4,30.9,28.6,33.4c5.9,23.6,27.2,41.1,52.6,41.1c16.6,0,31.5-7.5,41.5-19.3c11.1,13.1,27.7,21.4,46.2,21.4
		c33.4,0,60.5-27.1,60.5-60.5c0-1.6-0.1-3.1-0.2-4.6C1232.4,1563.5,1246.4,1547.3,1246.4,1527.8z"/>
	<path fill="#D1D3D4" d="M1213.9,1531.2c0.1,1.5,0.2,3.1,0.2,4.6c0,33.4-27.1,60.5-60.5,60.5c-18.5,0-35.1-8.3-46.2-21.4
		c-9.9,11.8-24.8,19.3-41.5,19.3c-25.4,0-46.7-17.5-52.6-41.1c-16.2-2.5-28.6-16.5-28.6-33.4c0,0,0,0,0,0c-2.9-2.6-5.4-5.6-7.5-8.8
		c-3.3,1.7-7.1,2.7-11.1,2.7c-6.3,0-12.1-2.4-16.4-6.4c-4.8,4.4-7.9,10.8-7.9,17.8c0,13.4,10.9,24.3,24.3,24.3c4,0,7.8-1,11.1-2.7
		c2.1,3.3,4.6,6.3,7.5,8.8c0,0,0,0,0,0c0,16.9,12.4,30.9,28.6,33.4c5.9,23.6,27.2,41.1,52.6,41.1c16.6,0,31.5-7.5,41.5-19.3
		c11.1,13.1,27.7,21.4,46.2,21.4c33.4,0,60.5-27.1,60.5-60.5c0-1.6-0.1-3.1-0.2-4.6c18.5-3.4,32.5-19.6,32.5-39
		c0-6.4-1.5-12.5-4.3-17.9C1236.6,1520.9,1226.3,1528.9,1213.9,1531.2z"/>
</g>
</svg>
